<?xml version="1.0" encoding="UTF-8"?>
<svg version="1.1" xmlns="http://www.w3.org/2000/svg" width="225" height="225">
<path d="M0 0 C74.25 0 148.5 0 225 0 C225 74.25 225 148.5 225 225 C150.75 225 76.5 225 0 225 C0 150.75 0 76.5 0 0 Z " fill="#FFFEFE" transform="translate(0,0)"/>
<path d="M0 0 C32.67 0 65.34 0 99 0 C99 5.61 99 11.22 99 17 C96.78974121 17.01458252 94.57948242 17.02916504 92.30224609 17.04418945 C84.98991318 17.09458375 77.67779212 17.16118735 70.36566734 17.23571491 C65.9334127 17.28039403 61.50124945 17.31965552 57.06884766 17.34643555 C52.78928558 17.37249315 48.51007567 17.41291277 44.23073196 17.46318626 C42.60015883 17.4798384 40.96952481 17.49136298 39.33887863 17.49761391 C37.05025283 17.50727323 34.76252461 17.5353528 32.47412109 17.56762695 C31.17284271 17.57873001 29.87156433 17.58983307 28.53085327 17.60127258 C22.12533248 18.32462656 18.17983336 21.22304759 14 26 C12.12218994 31.63343018 12.28699747 37.73516842 14.0625 43.375 C16.921024 47.24783897 20.2848571 50.39856132 25.10790825 51.46692848 C27.49771464 51.65187059 29.84313945 51.68418056 32.23999023 51.65942383 C33.58751625 51.67514938 33.58751625 51.67514938 34.96226501 51.69119263 C37.9113972 51.71983675 40.85934797 51.71366357 43.80859375 51.70703125 C45.86126672 51.72015271 47.91392679 51.73545831 49.96656799 51.75285339 C55.35390042 51.79266354 60.74089477 51.80289132 66.12835693 51.80688477 C71.63189931 51.81622364 77.13524367 51.85364199 82.63867188 51.88867188 C93.42577203 51.95320729 104.21272368 51.98648061 115 52 C115 53.98 115 55.96 115 58 C103.47286296 58.13951006 91.9459294 58.24587899 80.41811752 58.31087303 C75.06424722 58.34207972 69.7109579 58.38435653 64.35742188 58.45263672 C59.183193 58.518211 54.00952012 58.55378607 48.83490753 58.56926346 C46.86864733 58.58028182 44.90241483 58.60179729 42.93639374 58.63438034 C22.28482265 58.96278093 22.28482265 58.96278093 13 52 C10.07649577 48.99484061 8.33455204 46.00365611 7 42 C6.67 47.28 6.34 52.56 6 58 C4.02 58 2.04 58 0 58 C0 38.86 0 19.72 0 0 Z " fill="#FF6011" transform="translate(61,70)"/>
<path d="M0 0 C27.34083836 -0.12032643 27.34083836 -0.12032643 39.01757812 -0.14648438 C46.97736281 -0.16440033 54.93701951 -0.185569 62.89672852 -0.22631836 C69.31579792 -0.2589739 75.73475598 -0.27686623 82.15390205 -0.28463173 C84.59984654 -0.29016407 87.04578511 -0.30096736 89.49168205 -0.31719017 C92.92419358 -0.33904628 96.35624816 -0.34196344 99.78881836 -0.34057617 C100.79439285 -0.351362 101.79996735 -0.36214783 102.83601379 -0.3732605 C110.71207434 -0.33893804 118.63659904 0.77126391 124.6484375 6.36328125 C129.05177091 11.69564165 131.86666937 17.78873066 131.421875 24.76953125 C130.17311917 31.37174958 127.28874602 36.79304294 122 41 C114.37069077 46.11220442 106.53367624 45.51388652 97.6875 45.390625 C96.10710367 45.38315395 94.52669801 45.3774651 92.94628906 45.37347412 C88.80985418 45.35828556 84.6739914 45.31906369 80.53778076 45.2746582 C76.30781796 45.23355801 72.07776167 45.21543179 67.84765625 45.1953125 C59.56484319 45.15256159 51.28249299 45.08439416 43 45 C43 47.31 43 49.62 43 52 C71.38 52 99.76 52 129 52 C129 53.98 129 55.96 129 58 C98.97 58 68.94 58 38 58 C38 52.06 38 46.12 38 40 C41.35297241 39.98598145 41.35297241 39.98598145 44.77368164 39.97167969 C52.17384487 39.93785461 59.57373085 39.88227502 66.97367191 39.81609726 C71.45861804 39.77665233 75.94336871 39.7444493 80.4284668 39.72900391 C84.75997319 39.71381752 89.09094212 39.67933722 93.42220879 39.63169098 C95.07149003 39.61689753 96.72084802 39.60896015 98.37019539 39.60811615 C100.68755971 39.60573848 103.00344826 39.5785977 105.32055664 39.54589844 C106.6373793 39.53701599 107.95420197 39.52813354 109.31092834 39.51898193 C114.84782848 38.74004582 118.49829896 36.5402062 122.4375 32.5 C124.74743187 27.32575261 124.75070518 22.57666708 124 17 C121.70370541 12.05413474 118.68676135 9.69239482 114 7 C111.22239845 6.07413282 109.52322909 5.86578567 106.6530304 5.84178162 C105.76542023 5.8319928 104.87781006 5.82220398 103.96330261 5.81211853 C102.99226089 5.80636307 102.02121918 5.8006076 101.02075195 5.79467773 C99.48390747 5.77982834 99.48390747 5.77982834 97.91601562 5.76467896 C94.52346115 5.73304663 91.13089266 5.70829959 87.73828125 5.68359375 C85.38843925 5.66302573 83.03860097 5.6420293 80.68876648 5.62062073 C74.49920658 5.56538443 68.30961321 5.51598198 62.11999512 5.46777344 C54.69604576 5.40874553 47.27215767 5.34250897 39.84825897 5.27747345 C28.56554336 5.17944434 17.28278873 5.09060158 6 5 C6 26.78 6 48.56 6 71 C4.02 71 2.04 71 0 71 C0 47.57 0 24.14 0 0 Z " fill="#FF6010" transform="translate(47,56)"/>
<path d="M0 0 C29.04 0 58.08 0 88 0 C88 2.31 88 4.62 88 7 C87.14524078 7.00142502 86.29048157 7.00285004 85.40982056 7.00431824 C77.31878671 7.02221474 69.22829512 7.06402419 61.13752174 7.13209057 C56.97881614 7.16624992 52.82047357 7.19145318 48.66162109 7.19555664 C44.64122728 7.19986355 40.62165086 7.2285217 36.60151291 7.27343178 C35.07472893 7.28633097 33.54784674 7.29074157 32.02101517 7.28615379 C21.81996452 7.26266081 13.26675184 8.003338 5.5625 15.3125 C3.55063944 18.77290016 2.28529299 22.20838567 1 26 C0.67 26 0.34 26 0 26 C0 17.42 0 8.84 0 0 Z " fill="#FFFCFB" transform="translate(67,75)"/>
<path d="M0 0 C4.7953125 -0.1546875 4.7953125 -0.1546875 9.6875 -0.3125 C11.18543091 -0.38078003 11.18543091 -0.38078003 12.71362305 -0.45043945 C17.29951588 -0.52205793 19.35360018 -0.49006503 23.1171875 2.36328125 C25 5 25 5 25.4375 7.5 C25 10 25 10 23.91796875 12.26171875 C22.7743205 15.67319716 23.18118798 17.80489481 23.875 21.3125 C24.07867187 22.38113281 24.28234375 23.44976562 24.4921875 24.55078125 C24.65976563 25.35902344 24.82734375 26.16726562 25 27 C23.35 27 21.7 27 20 27 C19.01 23.37 18.02 19.74 17 16 C13.04 15.67 9.08 15.34 5 15 C5 18.96 5 22.92 5 27 C3.35 27 1.7 27 0 27 C0 18.09 0 9.18 0 0 Z " fill="#FF6214" transform="translate(47,141)"/>
<path d="M0 0 C1.65 0 3.3 0 5 0 C5 8.91 5 17.82 5 27 C2.66666667 27 0.33333333 27 -2 27 C-2.64453125 27.13019531 -3.2890625 27.26039063 -3.953125 27.39453125 C-8.40048135 28.20382909 -10.39751458 28.32276005 -14.5 26.125 C-17.41790975 23.20709025 -18.04320655 20.19509868 -18.23828125 16.15234375 C-17.86587017 12.78843387 -16.47949372 11.21144034 -14 9 C-11.22710758 6.82129881 -9.19044092 6.94520161 -5.8125 7.3125 C-2 8 -2 8 -1 9 C-0.67 6.03 -0.34 3.06 0 0 Z " fill="#FF5D0B" transform="translate(171,141)"/>
<path d="M0 0 C2.625 1.6875 2.625 1.6875 4.625 4.6875 C5.22624091 7.77464084 5.26320822 10.60462977 4.625 13.6875 C2.48411309 16.48510068 -0.23178905 18.11589452 -3.375 19.6875 C-9.47965114 20.19622093 -12.49452826 19.75455978 -17.375 15.6875 C-19.8665904 11.9501144 -19.83293285 10.11418417 -19.375 5.6875 C-14.71220622 -1.80627571 -8.02558476 -3.12106074 0 0 Z " fill="#FF5D0D" transform="translate(92.375,149.3125)"/>
<path d="M0 0 C2.0625 1.625 2.0625 1.625 3.0625 3.625 C3.1341735 6.17657655 3.15558442 8.69972971 3.125 11.25 C3.12048828 11.95640625 3.11597656 12.6628125 3.11132812 13.390625 C3.09953875 15.13545275 3.08160324 16.880237 3.0625 18.625 C1.47501953 18.60373047 1.47501953 18.60373047 -0.14453125 18.58203125 C-3.10745885 18.61559686 -5.72336221 18.82802547 -8.625 19.3125 C-11.51301404 19.64269956 -12.74060653 19.70183648 -15.5 18.625 C-17.73582542 15.51428637 -17.53371816 13.33480188 -16.9375 9.625 C-14.56370356 7.17207702 -12.75096124 6.67964472 -9.37890625 6.453125 C-6.88987568 6.43900284 -4.42280564 6.49470242 -1.9375 6.625 C-2.2675 5.635 -2.5975 4.645 -2.9375 3.625 C-5.27044775 3.58258277 -7.60452567 3.58407063 -9.9375 3.625 C-10.2675 3.955 -10.5975 4.285 -10.9375 4.625 C-12.93708364 4.66580783 -14.93795254 4.66754356 -16.9375 4.625 C-16.02236681 2.33716703 -15.28265354 0.89050272 -13.3125 -0.625 C-8.54122228 -2.13171928 -4.46234485 -2.08875716 0 0 Z " fill="#FF5B08" transform="translate(123.9375,149.375)"/>
<path d="M0 0 C2.31 0.33 4.62 0.66 7 1 C7.66 0.67 8.32 0.34 9 0 C12.87214182 -0.43023798 14.52496371 -0.31669086 17.8125 1.875 C20.6290092 4.61103751 20.9789789 5.29873597 21.09765625 9.2578125 C21.08605469 10.53398437 21.07445312 11.81015625 21.0625 13.125 C21.05347656 14.40632812 21.04445312 15.68765625 21.03515625 17.0078125 C21.02355469 17.99523437 21.01195312 18.98265625 21 20 C19.35 20 17.7 20 16 20 C15.93941406 19.00097656 15.87882813 18.00195312 15.81640625 16.97265625 C15.69072266 15.03712891 15.69072266 15.03712891 15.5625 13.0625 C15.48128906 11.77472656 15.40007812 10.48695313 15.31640625 9.16015625 C15.35080812 6.13976043 15.35080812 6.13976043 14 5 C11.04182893 4.74994614 11.04182893 4.74994614 8 5 C5.22957891 7.77042109 5.60203894 9.76533805 5.375 13.625 C5.30023438 14.81351563 5.22546875 16.00203125 5.1484375 17.2265625 C5.09945312 18.14179688 5.05046875 19.05703125 5 20 C3.35 20 1.7 20 0 20 C0 13.4 0 6.8 0 0 Z " fill="#FF5F11" transform="translate(130,148)"/>
<path d="M0 0 C2 1.0625 2 1.0625 3 3 C3.4375 6.5 3.4375 6.5 3 10 C0.79803976 12.62541413 -0.61973579 12.9445448 -4 13.4375 C-7 13 -7 13 -9.375 11.375 C-11.46379841 8.32214079 -11.54068562 6.63031776 -11 3 C-8.76734719 -1.18622402 -4.17412169 -0.61742217 0 0 Z " fill="#FFFAF8" transform="translate(89,152)"/>
<path d="M0 0 C2.375 1.125 2.375 1.125 4 3 C4.49453975 6.32048116 4.30818153 8.31112364 2.9375 11.375 C1 13 1 13 -2.5 13.4375 C-6 13 -6 13 -7.9375 11.9375 C-9.6140629 8.88023824 -9.36528977 6.4093712 -9 3 C-6.83831363 -0.7229043 -4.01644453 -0.49180953 0 0 Z " fill="#FFF9F6" transform="translate(167,152)"/>
<path d="M0 0 C1.65 0 3.3 0 5 0 C5 8.91 5 17.82 5 27 C3.35 27 1.7 27 0 27 C0 18.09 0 9.18 0 0 Z " fill="#FF5C0C" transform="translate(99,141)"/>
<path d="M0 0 C1.93719378 -0.05406122 3.87481921 -0.09282025 5.8125 -0.125 C6.89144531 -0.14820313 7.97039063 -0.17140625 9.08203125 -0.1953125 C12 0 12 0 15 2 C14.125 6.875 14.125 6.875 13 8 C10.81360547 8.07258946 8.62499611 8.08373783 6.4375 8.0625 C4.64119141 8.04896484 4.64119141 8.04896484 2.80859375 8.03515625 C1.88175781 8.02355469 0.95492187 8.01195312 0 8 C0 5.36 0 2.72 0 0 Z " fill="#FFF4F1" transform="translate(52,144)"/>
<path d="M0 0 C-0.639375 0.598125 -1.27875 1.19625 -1.9375 1.8125 C-4.20310389 3.90810337 -4.20310389 3.90810337 -5 7 C-2.03 7 0.94 7 4 7 C2 11 2 11 1 12 C-2.2119911 12.28551032 -4.4123913 12.26287757 -7.375 10.9375 C-9 9 -9 9 -9.5625 5.5 C-9 2 -9 2 -6.75 0 C-3.86898163 -1.04764304 -2.78690244 -1.1354047 0 0 Z " fill="#FF5C0B" transform="translate(116,157)"/>
<path d="M0 0 C-0.375 2.4375 -0.375 2.4375 -1 5 C-3.73905345 6.36952673 -5.97087332 6.12621361 -9 6 C-9.66 5.67 -10.32 5.34 -11 5 C-10.625 3.0625 -10.625 3.0625 -10 1 C-6.78548731 -0.60725635 -3.56387464 -0.05748185 0 0 Z " fill="#FFEEE7" transform="translate(122,159)"/>
<path d="M0 0 C-0.33 1.32 -0.66 2.64 -1 4 C-5.53701494 5.45184478 -9.18061476 6.23509196 -14 6 C-13.08486681 3.71216703 -12.34515354 2.26550272 -10.375 0.75 C-6.86146845 -0.35953628 -3.67700382 -0.12256679 0 0 Z " fill="#FF6115" transform="translate(121,148)"/>
<path d="M0 0 C5.61 0 11.22 0 17 0 C16.01 0.495 16.01 0.495 15 1 C15 1.66 15 2.32 15 3 C11.7 3 8.4 3 5 3 C5 2.34 5 1.68 5 1 C3.35 1 1.7 1 0 1 C0 0.67 0 0.34 0 0 Z " fill="#FF5200" transform="translate(48,141)"/>
<path d="M0 0 C2.31 0 4.62 0 7 0 C7.33 1.32 7.66 2.64 8 4 C4.7 4 1.4 4 -2 4 C-1.34 2.68 -0.68 1.36 0 0 Z " fill="#FFF5F1" transform="translate(114,152)"/>
<path d="M0 0 C2.31 0.33 4.62 0.66 7 1 C6.01 2.485 6.01 2.485 5 4 C3.0625 3.6875 3.0625 3.6875 1 3 C0.67 2.01 0.34 1.02 0 0 Z " fill="#FF6C24" transform="translate(161,148)"/>
</svg>
